<svg xmlns="http://www.w3.org/2000/svg" xmlns:xlink="http://www.w3.org/1999/xlink" xml:space="preserve" version="1.1" style="shape-rendering:geometricPrecision;text-rendering:geometricPrecision;image-rendering:optimizeQuality;" viewBox="0 0 294 355" x="0px" y="0px" fill-rule="evenodd" clip-rule="evenodd"><defs><style type="text/css">
   
    .fil0 {fill:black;fill-rule:nonzero}
   
  </style></defs><g><path class="fil0" d="M147 0c49,0 90,40 90,90 0,30 -15,57 -39,73 51,19 89,65 96,121l-26 0c-8,-60 -60,-105 -121,-105 -61,0 -113,45 -121,105l-26 0c7,-56 45,-102 96,-121 -24,-16 -39,-43 -39,-73 0,-50 41,-90 90,-90zm0 25c-36,0 -64,29 -64,65 0,35 28,64 64,64 36,0 64,-29 64,-64 0,-36 -28,-65 -64,-65z"/></g><text x="0" y="299" fill="#000000" font-size="5px" font-weight="bold" font-family="'Helvetica Neue', Helvetica, Arial-Unicode, Arial, Sans-serif">Created by Aquene Ardeen</text><text x="0" y="304" fill="#000000" font-size="5px" font-weight="bold" font-family="'Helvetica Neue', Helvetica, Arial-Unicode, Arial, Sans-serif">from the Noun Project</text></svg>